# xmcd CD database file
#
# Track frame offsets:
#	150
#	13350
#	27851
#	41222
#	54497
#	66178
#	81461
#	95017
#	108613
#	120943
#	134326
#	146068
#	161039
#	174678
#	189905
#	204132
#	217849
#	231971
#	245355
#	259208
#	274535
#	289032
#	303006
#	315718
#	328747
#
# Disc length: 4562 seconds
#
# Revision: 0
# Processed by: cddbd v1.5.2PL0 Copyright (c) Steve Scherf et al.
# Submitted via: CDex 1.51
#
DISCID=6e11d019
DTITLE=Louis Armstrong - The Lengendary
DYEAR=2005
DGENRE=Jazz
TTITLE0=Mahogany Hall Stomp
TTITLE1=When It's Seepy Time Down South
TTITLE2=Ain't Misbehavin'
TTITLE3=I can't give you anything but love
TTITLE4=Satchel mouth blues
TTITLE5=Confessin'
TTITLE6=You rascal you
TTITLE7=I want a little
TTITLE8=So little time (so much to do)
TTITLE9=All of me
TTITLE10=Blues for yesterday
TTITLE11=Just a gigolo
TTITLE12=hotter than that
TTITLE13=My sweet
TTITLE14=I surrender dear
TTITLE15=That's when I'll come back to you
TTITLE16=You're driving me crazy
TTITLE17=Whatta ya gonna do?
TTITLE18=Red
TTITLE19=The new tiger rag
TTITLE20=Wolverine blues
TTITLE21=Perdido street blues
TTITLE22=2:19 blues (Mamie's blues)
TTITLE23=You won't be satisfied
TTITLE24=Down in Honky Tonk Town
EXTD=YEAR: 2005
EXTT0=
EXTT1=
EXTT2=
EXTT3=
EXTT4=
EXTT5=
EXTT6=
EXTT7=
EXTT8=
EXTT9=
EXTT10=
EXTT11=
EXTT12=
EXTT13=
EXTT14=
EXTT15=
EXTT16=
EXTT17=
EXTT18=
EXTT19=
EXTT20=
EXTT21=
EXTT22=
EXTT23=
EXTT24=
PLAYORDER=
